# xmcd
# 
# Track frame offsets:
#     150
#     19805
#     39297
#     58106
#     83440
#     102065
#     119069
#     141206
#     165321
#     194074
#     213196
#     233127
#     252566
# 
# Disc length: 3652
# 
# Revision: 1
# Processed by: cddbd v1.5.2PL0 Copyright (c) Steve Scherf et al.
# Submitted via: fre:ac v1.1beta1pre3
# 
DISCID=ae0e420d
DTITLE=Tasha's World - Tasha's World
DYEAR=2002
DGENRE=Soul
TTITLE0=Tasha's World
TTITLE1=So...Ho
TTITLE2=Breakfast London Style
TTITLE3=She's A Pimp
TTITLE4=Black Panther
TTITLE5=Nothing Really Matters
TTITLE6=Part Of My Life
TTITLE7=All That's On My Mind
TTITLE8=Stalker
TTITLE9=You R The Star
TTITLE10=All Of Me
TTITLE11=Down and Around
TTITLE12=Taste Your Love
EXTD=
EXTT0=
EXTT1=
EXTT2=
EXTT3=
EXTT4=
EXTT5=
EXTT6=
EXTT7=
EXTT8=
EXTT9=
EXTT10=
EXTT11=
EXTT12=
PLAYORDER=
